Katibeh - Latin - Kerning, Without Production Names.ufo
<glyph name="slash" format="1">
  <advance width="241"/>
  <unicode hex="002F"/>
  <outline>
    <contour>
      <point x="40" y="-41" type="line"/>
      <point x="235" y="508" type="line"/>
      <point x="201" y="508" type="line"/>
      <point x="7" y="-41" type="line"/>
    </contour>
  </outline>
</glyph>
<glyph name="four" format="1">
  <advance width="404"/>
  <unicode hex="0034"/>
  <outline>
    <contour>
      <point x="377" y="105" type="line"/>
      <point x="388" y="112"/>
      <point x="391" y="120"/>
      <point x="391" y="133" type="curve"/>
      <point x="77" y="133" type="line"/>
      <point x="278" y="457" type="line"/>
      <point x="266" y="467" type="line"/>
      <point x="175" y="467" type="line"/>
      <point x="12" y="123" type="line"/>
      <point x="23" y="105" type="line"/>
    </contour>
    <contour>
      <point x="331" y="311" type="line"/>
      <point x="228" y="293" type="line"/>
      <point x="221" y="283" type="line"/>
      <point x="232" y="266"/>
      <point x="235" y="252"/>
      <point x="235" y="224" type="curve" smooth="yes"/>
      <point x="235" y="83" type="line" smooth="yes"/>
      <point x="235" y="44"/>
      <point x="228" y="33"/>
      <point x="193" y="25" type="curve" smooth="yes"/>
      <point x="163" y="18" type="line"/>
      <point x="170" y="0" type="line"/>
      <point x="360" y="0" type="line"/>
      <point x="369" y="10" type="line"/>
      <point x="360" y="22" type="line" smooth="yes"/>
      <point x="338" y="52"/>
      <point x="331" y="72"/>
      <point x="331" y="105" type="curve" smooth="yes"/>
    </contour>
  </outline>
</glyph>
<glyph name="seven" format="1">
  <advance width="331"/>
  <unicode hex="0037"/>
  <outline>
    <contour>
      <point x="273" y="404" type="line"/>
      <point x="280" y="393" type="line"/>
      <point x="32" y="393" type="line"/>
      <point x="19" y="407"/>
      <point x="10" y="436"/>
      <point x="10" y="467" type="curve"/>
      <point x="316" y="467" type="line"/>
      <point x="328" y="450" type="line"/>
      <point x="209" y="123" type="line" smooth="yes"/>
      <point x="199" y="96"/>
      <point x="195" y="80"/>
      <point x="195" y="61" type="curve" smooth="yes"/>
      <point x="195" y="46"/>
      <point x="199" y="33"/>
      <point x="204" y="22" type="curve" smooth="yes"/>
      <point x="211" y="10" type="line"/>
      <point x="203" y="0" type="line"/>
      <point x="37" y="0" type="line"/>
      <point x="31" y="18" type="line"/>
      <point x="45" y="22" type="line" smooth="yes"/>
      <point x="78" y="31"/>
      <point x="93" y="44"/>
      <point x="112" y="83" type="curve" smooth="yes"/>
    </contour>
  </outline>
</glyph>
<glyph name="greater" format="1">
  <advance width="405"/>
  <unicode hex="003E"/>
  <outline>
    <contour>
      <point x="340" y="257" type="line"/>
      <point x="65" y="368" type="line"/>
      <point x="65" y="319" type="line"/>
      <point x="285" y="232" type="line"/>
      <point x="65" y="146" type="line"/>
      <point x="65" y="96" type="line"/>
      <point x="340" y="207" type="line"/>
    </contour>
  </outline>
</glyph>
<glyph name="U" format="1">
  <advance width="481"/>
  <unicode hex="0055"/>
  <outline>
    <contour>
      <point x="418" y="336" type="line"/>
      <point x="417" y="388"/>
      <point x="424" y="414"/>
      <point x="447" y="445" type="curve" smooth="yes"/>
      <point x="456" y="456" type="line"/>
      <point x="447" y="467" type="line"/>
      <point x="331" y="467" type="line"/>
      <point x="324" y="449" type="line"/>
      <point x="372" y="435"/>
      <point x="385" y="427"/>
      <point x="385" y="384" type="curve" smooth="yes"/>
      <point x="385" y="157" type="line" smooth="yes"/>
      <point x="385" y="71"/>
      <point x="342" y="21"/>
      <point x="266" y="21" type="curve" smooth="yes"/>
      <point x="200" y="21"/>
      <point x="164" y="68"/>
      <point x="164" y="157" type="curve" smooth="yes"/>
      <point x="164" y="360" type="line" smooth="yes"/>
      <point x="164" y="417"/>
      <point x="170" y="428"/>
      <point x="214" y="451" type="curve"/>
      <point x="207" y="467" type="line"/>
      <point x="32" y="467" type="line"/>
      <point x="25" y="454" type="line"/>
      <point x="61" y="423"/>
      <point x="68" y="406"/>
      <point x="68" y="345" type="curve" smooth="yes"/>
      <point x="68" y="166" type="line" smooth="yes"/>
      <point x="68" y="55"/>
      <point x="134" y="-9"/>
      <point x="245" y="-9" type="curve" smooth="yes"/>
      <point x="358" y="-9"/>
      <point x="418" y="51"/>
      <point x="418" y="166" type="curve" smooth="yes"/>
    </contour>
    <contour>
      <point x="302" y="0" type="move" name="ogonek"/>
    </contour>
    <contour>
      <point x="272" y="467" type="move" name="top"/>
    </contour>
    <contour>
      <point x="468" y="455" type="move" name="topright"/>
    </contour>
    <contour>
      <point x="241" y="0" type="move" name="bottom"/>
    </contour>
  </outline>
</glyph>
<glyph name="f" format="1">
  <advance width="226"/>
  <unicode hex="0066"/>
  <outline>
    <contour>
      <point x="151" y="282" type="line"/>
      <point x="209" y="282" type="line"/>
      <point x="219" y="289"/>
      <point x="224" y="304"/>
      <point x="224" y="321" type="curve"/>
      <point x="151" y="321" type="line"/>
      <point x="151" y="395" type="line" smooth="yes"/>
      <point x="151" y="446"/>
      <point x="166" y="475"/>
      <point x="193" y="475" type="curve" smooth="yes"/>
      <point x="214" y="475"/>
      <point x="227" y="455"/>
      <point x="227" y="423" type="curve" smooth="yes"/>
      <point x="227" y="395"/>
      <point x="216" y="384"/>
      <point x="209" y="378" type="curve"/>
      <point x="222" y="372"/>
      <point x="235" y="370"/>
      <point x="246" y="370" type="curve" smooth="yes"/>
      <point x="280" y="370"/>
      <point x="304" y="393"/>
      <point x="304" y="430" type="curve" smooth="yes"/>
      <point x="304" y="471"/>
      <point x="264" y="499"/>
      <point x="205" y="499" type="curve" smooth="yes"/>
      <point x="112" y="499"/>
      <point x="60" y="436"/>
      <point x="60" y="321" type="curve"/>
      <point x="23" y="312" type="line" smooth="yes"/>
      <point x="10" y="308"/>
      <point x="9" y="305"/>
      <point x="9" y="282" type="curve"/>
      <point x="60" y="282" type="line"/>
      <point x="60" y="105" type="line" smooth="yes"/>
      <point x="60" y="62"/>
      <point x="54" y="41"/>
      <point x="39" y="20" type="curve" smooth="yes"/>
      <point x="31" y="10" type="line"/>
      <point x="39" y="0" type="line"/>
      <point x="195" y="0" type="line"/>
      <point x="201" y="17" type="line"/>
      <point x="188" y="20" type="line" smooth="yes"/>
      <point x="156" y="27"/>
      <point x="151" y="34"/>
      <point x="151" y="66" type="curve" smooth="yes"/>
    </contour>
  </outline>
</glyph>
<glyph name="braceleft" format="1">
  <advance width="214"/>
  <unicode hex="007B"/>
  <outline>
    <contour>
      <point x="149" y="169"/>
      <point x="125" y="207"/>
      <point x="77" y="217" type="curve"/>
      <point x="125" y="228"/>
      <point x="149" y="265"/>
      <point x="149" y="332" type="curve" smooth="yes"/>
      <point x="149" y="429"/>
      <point x="164" y="473"/>
      <point x="204" y="485" type="curve"/>
      <point x="199" y="503" type="line"/>
      <point x="98" y="493"/>
      <point x="40" y="429"/>
      <point x="40" y="325" type="curve" smooth="yes"/>
      <point x="40" y="252"/>
      <point x="30" y="229"/>
      <point x="-9" y="222" type="curve"/>
      <point x="-9" y="208" type="line"/>
      <point x="30" y="201"/>
      <point x="40" y="178"/>
      <point x="40" y="105" type="curve" smooth="yes"/>
      <point x="40" y="1"/>
      <point x="98" y="-62"/>
      <point x="199" y="-73" type="curve"/>
      <point x="204" y="-54" type="line"/>
      <point x="164" y="-43"/>
      <point x="149" y="2"/>
      <point x="149" y="102" type="curve" smooth="yes"/>
    </contour>
  </outline>
</glyph>
<glyph name="currency" format="1">
  <advance width="413"/>
  <unicode hex="00A4"/>
  <outline>
    <contour>
      <point x="55" y="158"/>
      <point x="110" y="96"/>
      <point x="205" y="96" type="curve" smooth="yes"/>
      <point x="300" y="96"/>
      <point x="356" y="158"/>
      <point x="356" y="235" type="curve" smooth="yes"/>
      <point x="356" y="311"/>
      <point x="300" y="374"/>
      <point x="205" y="374" type="curve" smooth="yes"/>
      <point x="110" y="374"/>
      <point x="55" y="311"/>
      <point x="55" y="235" type="curve" smooth="yes"/>
    </contour>
    <contour>
      <point x="261" y="163"/>
      <point x="236" y="119"/>
      <point x="203" y="119" type="curve" smooth="yes"/>
      <point x="172" y="119"/>
      <point x="151" y="159"/>
      <point x="151" y="233" type="curve" smooth="yes"/>
      <point x="151" y="308"/>
      <point x="175" y="352"/>
      <point x="209" y="352" type="curve" smooth="yes"/>
      <point x="240" y="352"/>
      <point x="261" y="311"/>
      <point x="261" y="237" type="curve" smooth="yes"/>
    </contour>
    <contour>
      <point x="120" y="168" type="line"/>
      <point x="34" y="83" type="line"/>
      <point x="34" y="72"/>
      <point x="37" y="62"/>
      <point x="44" y="53" type="curve"/>
      <point x="135" y="144" type="line"/>
    </contour>
    <contour>
      <point x="293" y="302" type="line"/>
      <point x="379" y="387" type="line"/>
      <point x="379" y="398"/>
      <point x="377" y="409"/>
      <point x="370" y="418" type="curve"/>
      <point x="282" y="330" type="line"/>
    </contour>
    <contour>
      <point x="273" y="148" type="line"/>
      <point x="358" y="63" type="line"/>
      <point x="368" y="63"/>
      <point x="380" y="66"/>
      <point x="389" y="72" type="curve"/>
      <point x="298" y="163" type="line"/>
    </contour>
    <contour>
      <point x="140" y="322" type="line"/>
      <point x="54" y="408" type="line"/>
      <point x="44" y="408"/>
      <point x="33" y="407"/>
      <point x="23" y="398" type="curve"/>
      <point x="111" y="311" type="line"/>
    </contour>
  </outline>
</glyph>
<glyph name="oslash" format="1">
  <advance width="385"/>
  <unicode hex="00F8"/>
  <outline>
    <component base="o"/>
    <component base="slashlongcomb" xOffset="71" yOffset="-12" yScale="0.75"/>
    <contour>
      <point x="192" y="325" type="move" name="top"/>
    </contour>
  </outline>
</glyph>
<glyph name="idotless" format="1">
  <advance width="212"/>
  <unicode hex="0131"/>
  <outline>
    <contour>
      <point x="149" y="310" type="line" smooth="yes"/>
      <point x="149" y="323"/>
      <point x="137" y="332"/>
      <point x="121" y="332" type="curve" smooth="yes"/>
      <point x="81" y="332"/>
      <point x="37" y="316"/>
      <point x="11" y="293" type="curve"/>
      <point x="14" y="282" type="line"/>
      <point x="45" y="282" type="line" smooth="yes"/>
      <point x="54" y="282"/>
      <point x="58" y="278"/>
      <point x="58" y="268" type="curve" smooth="yes"/>
      <point x="58" y="70" type="line" smooth="yes"/>
      <point x="58" y="14"/>
      <point x="78" y="-9"/>
      <point x="126" y="-9" type="curve" smooth="yes"/>
      <point x="159" y="-9"/>
      <point x="188" y="4"/>
      <point x="213" y="32" type="curve"/>
      <point x="205" y="42" type="line"/>
      <point x="194" y="33"/>
      <point x="180" y="27"/>
      <point x="168" y="27" type="curve" smooth="yes"/>
      <point x="155" y="27"/>
      <point x="149" y="37"/>
      <point x="149" y="57" type="curve" smooth="yes"/>
    </contour>
    <contour>
      <point x="183" y="7" type="move" name="ogonek"/>
    </contour>
    <contour>
      <point x="106" y="0" type="move" name="bottom"/>
    </contour>
    <contour>
      <point x="106" y="325" type="move" name="top"/>
    </contour>
  </outline>
</glyph>
<glyph name="acutecomb" format="1">
  <advance width="161"/>
  <unicode hex="0301"/>
  <outline>
    <contour>
      <point x="11" y="385" type="line"/>
      <point x="24" y="369" type="line"/>
      <point x="106" y="399" type="line" smooth="yes"/>
      <point x="138" y="410"/>
      <point x="150" y="428"/>
      <point x="150" y="449" type="curve" smooth="yes"/>
      <point x="150" y="470"/>
      <point x="135" y="485"/>
      <point x="113" y="494" type="curve"/>
    </contour>
    <contour>
      <point x="81" y="494" type="move" name="top"/>
    </contour>
    <contour>
      <point x="68" y="325" type="move" name="_top"/>
    </contour>
  </outline>
</glyph>
<glyph name="dotaccentcomb" format="1">
  <advance width="138"/>
  <unicode hex="0307"/>
  <outline>
    <contour>
      <point x="11" y="403"/>
      <point x="46" y="366"/>
      <point x="68" y="366" type="curve" smooth="yes"/>
      <point x="92" y="366"/>
      <point x="127" y="403"/>
      <point x="127" y="428" type="curve" smooth="yes"/>
      <point x="127" y="452"/>
      <point x="92" y="490"/>
      <point x="68" y="490" type="curve" smooth="yes"/>
      <point x="45" y="490"/>
      <point x="11" y="452"/>
      <point x="11" y="428" type="curve" smooth="yes"/>
    </contour>
    <contour>
      <point x="69" y="490" type="move" name="top"/>
    </contour>
    <contour>
      <point x="69" y="325" type="move" name="_top"/>
    </contour>
  </outline>
</glyph>
<glyph name="strokelongcomb" format="1">
  <advance width="467"/>
  <unicode hex="0336"/>
  <outline>
    <contour>
      <point x="447" y="216" type="line"/>
      <point x="457" y="226"/>
      <point x="461" y="243"/>
      <point x="461" y="257" type="curve"/>
      <point x="19" y="257" type="line"/>
      <point x="9" y="248"/>
      <point x="7" y="230"/>
      <point x="7" y="216" type="curve"/>
    </contour>
    <contour>
      <point x="234" y="237" type="move" name="_center"/>
    </contour>
  </outline>
</glyph>
<glyph name="slashshortcomb" format="1">
  <advance width="230"/>
  <unicode hex="0337"/>
  <outline>
    <contour>
      <point x="15" y="200" type="line"/>
      <point x="14" y="159" type="line"/>
      <point x="212" y="257" type="line"/>
      <point x="212" y="296" type="line"/>
    </contour>
    <contour>
      <point x="119" y="233" type="move" name="_center"/>
    </contour>
  </outline>
</glyph>
<glyph name="emdash" format="1">
  <advance width="592"/>
  <unicode hex="2014"/>
  <outline>
    <contour>
      <point x="541" y="170" type="line"/>
      <point x="554" y="180"/>
      <point x="558" y="200"/>
      <point x="558" y="216" type="curve"/>
      <point x="49" y="209" type="line"/>
      <point x="37" y="200"/>
      <point x="33" y="179"/>
      <point x="33" y="164" type="curve"/>
    </contour>
  </outline>
</glyph>
<glyph name="guilsinglright" format="1">
  <advance width="191"/>
  <unicode hex="203A"/>
  <outline>
    <contour>
      <point x="39" y="52"/>
      <point x="69" y="43"/>
      <point x="90" y="40" type="curve"/>
      <point x="147" y="131"/>
      <point x="167" y="164"/>
      <point x="167" y="181" type="curve" smooth="yes"/>
      <point x="167" y="199"/>
      <point x="146" y="233"/>
      <point x="90" y="323" type="curve"/>
      <point x="69" y="320"/>
      <point x="39" y="311"/>
      <point x="19" y="275" type="curve"/>
      <point x="33" y="254"/>
      <point x="75" y="214"/>
      <point x="110" y="181" type="curve"/>
      <point x="75" y="149"/>
      <point x="33" y="110"/>
      <point x="19" y="88" type="curve"/>
    </contour>
  </outline>
</glyph>
<glyph name="Ohm" format="1">
  <advance width="495"/>
  <unicode hex="2126"/>
  <outline>
    <contour>
      <point x="341" y="91" type="line"/>
      <point x="424" y="126"/>
      <point x="467" y="198"/>
      <point x="467" y="274" type="curve" smooth="yes"/>
      <point x="467" y="378"/>
      <point x="396" y="475"/>
      <point x="248" y="475" type="curve" smooth="yes"/>
      <point x="99" y="475"/>
      <point x="28" y="378"/>
      <point x="28" y="274" type="curve" smooth="yes"/>
      <point x="28" y="198"/>
      <point x="71" y="126"/>
      <point x="155" y="91" type="curve"/>
      <point x="155" y="70" type="line" smooth="yes"/>
      <point x="155" y="42"/>
      <point x="142" y="33"/>
      <point x="111" y="26" type="curve" smooth="yes"/>
      <point x="57" y="14" type="line"/>
      <point x="57" y="0" type="line"/>
      <point x="192" y="0" type="line"/>
      <point x="192" y="103" type="line"/>
      <point x="143" y="138"/>
      <point x="126" y="200"/>
      <point x="126" y="265" type="curve" smooth="yes"/>
      <point x="126" y="369"/>
      <point x="165" y="453"/>
      <point x="248" y="453" type="curve" smooth="yes"/>
      <point x="330" y="453"/>
      <point x="369" y="369"/>
      <point x="369" y="265" type="curve" smooth="yes"/>
      <point x="369" y="200"/>
      <point x="351" y="138"/>
      <point x="304" y="103" type="curve"/>
      <point x="304" y="0" type="line"/>
      <point x="447" y="0" type="line"/>
      <point x="447" y="14" type="line"/>
      <point x="390" y="26" type="line" smooth="yes"/>
      <point x="356" y="34"/>
      <point x="341" y="42"/>
      <point x="341" y="70" type="curve" smooth="yes"/>
    </contour>
  </outline>
</glyph>
<glyph name="one.dnom" format="1">
  <advance width="225"/>
  <outline>
    <contour>
      <point x="156" y="262" type="line"/>
      <point x="166" y="269" type="line"/>
      <point x="161" y="278"/>
      <point x="155" y="283"/>
      <point x="147" y="286" type="curve"/>
      <point x="4" y="233" type="line"/>
      <point x="6" y="216"/>
      <point x="22" y="195"/>
      <point x="37" y="192" type="curve"/>
      <point x="80" y="220" type="line"/>
      <point x="80" y="53" type="line" smooth="yes"/>
      <point x="80" y="30"/>
      <point x="76" y="24"/>
      <point x="58" y="20" type="curve" smooth="yes"/>
      <point x="37" y="16" type="line"/>
      <point x="43" y="0" type="line"/>
      <point x="172" y="0" type="line"/>
      <point x="178" y="8" type="line"/>
      <point x="173" y="16" type="line" smooth="yes"/>
      <point x="160" y="37"/>
      <point x="156" y="53"/>
      <point x="156" y="80" type="curve" smooth="yes"/>
    </contour>
  </outline>
</glyph>
<glyph name="one.osf" format="1">
  <advance width="286"/>
  <outline>
    <contour>
      <point x="204" y="332" type="line"/>
      <point x="1" y="303" type="line"/>
      <point x="1" y="275"/>
      <point x="11" y="248"/>
      <point x="27" y="240" type="curve"/>
      <point x="113" y="273" type="line"/>
      <point x="113" y="83" type="line" smooth="yes"/>
      <point x="113" y="42"/>
      <point x="99" y="32"/>
      <point x="66" y="25" type="curve" smooth="yes"/>
      <point x="30" y="18" type="line"/>
      <point x="36" y="0" type="line"/>
      <point x="253" y="0" type="line"/>
      <point x="255" y="10" type="line"/>
      <point x="240" y="22" type="line" smooth="yes"/>
      <point x="212" y="44"/>
      <point x="204" y="69"/>
      <point x="204" y="131" type="curve" smooth="yes"/>
    </contour>
  </outline>
</glyph>
<glyph name="six.dnom" format="1">
  <advance width="281"/>
  <outline>
    <contour>
      <point x="160" y="140"/>
      <point x="171" y="116"/>
      <point x="171" y="78" type="curve" smooth="yes"/>
      <point x="171" y="39"/>
      <point x="159" y="14"/>
      <point x="139" y="14" type="curve" smooth="yes"/>
      <point x="121" y="14"/>
      <point x="111" y="36"/>
      <point x="111" y="74" type="curve" smooth="yes"/>
      <point x="111" y="113"/>
      <point x="124" y="140"/>
      <point x="142" y="140" type="curve" smooth="yes"/>
    </contour>
    <contour>
      <point x="174" y="211"/>
      <point x="167" y="195"/>
      <point x="158" y="189" type="curve"/>
      <point x="160" y="182" type="line"/>
      <point x="212" y="182"/>
      <point x="245" y="201"/>
      <point x="245" y="231" type="curve" smooth="yes"/>
      <point x="245" y="263"/>
      <point x="209" y="285"/>
      <point x="156" y="285" type="curve" smooth="yes"/>
      <point x="73" y="285"/>
      <point x="20" y="223"/>
      <point x="20" y="125" type="curve" smooth="yes"/>
      <point x="20" y="44"/>
      <point x="69" y="-9"/>
      <point x="143" y="-9" type="curve" smooth="yes"/>
      <point x="208" y="-9"/>
      <point x="250" y="27"/>
      <point x="250" y="83" type="curve" smooth="yes"/>
      <point x="250" y="132"/>
      <point x="219" y="163"/>
      <point x="169" y="163" type="curve" smooth="yes"/>
      <point x="135" y="163"/>
      <point x="112" y="150"/>
      <point x="99" y="125" type="curve"/>
      <point x="95" y="125" type="line"/>
      <point x="95" y="206"/>
      <point x="117" y="263"/>
      <point x="148" y="263" type="curve" smooth="yes"/>
      <point x="164" y="263"/>
      <point x="174" y="248"/>
      <point x="174" y="224" type="curve" smooth="yes"/>
    </contour>
  </outline>
</glyph>
<glyph name="zero.dnom" format="1">
  <advance width="299"/>
  <outline>
    <contour>
      <point x="23" y="48"/>
      <point x="70" y="-9"/>
      <point x="144" y="-9" type="curve" smooth="yes"/>
      <point x="222" y="-9"/>
      <point x="275" y="54"/>
      <point x="275" y="146" type="curve" smooth="yes"/>
      <point x="275" y="232"/>
      <point x="228" y="285"/>
      <point x="154" y="285" type="curve" smooth="yes"/>
      <point x="77" y="285"/>
      <point x="23" y="224"/>
      <point x="23" y="138" type="curve" smooth="yes"/>
    </contour>
    <contour>
      <point x="101" y="214"/>
      <point x="119" y="263"/>
      <point x="148" y="263" type="curve" smooth="yes"/>
      <point x="178" y="263"/>
      <point x="196" y="215"/>
      <point x="196" y="137" type="curve" smooth="yes"/>
      <point x="196" y="60"/>
      <point x="178" y="14"/>
      <point x="148" y="14" type="curve" smooth="yes"/>
      <point x="119" y="14"/>
      <point x="101" y="61"/>
      <point x="101" y="137" type="curve" smooth="yes"/>
    </contour>
  </outline>
</glyph>
